# xmcd
#
# Track frame offsets:
#	150
#	15072
#	26502
#	37072
#	74492
#	88085
#	99772
#	111425
#	121517
#	136220
#	157355
#	170652
#	185612
#	198212
#	209325
#	221715
#
# Disc length: 3131 seconds
# Revision: 4
# Processed by: cddbd v1.5.2PL0 Copyright (c) Steve Scherf et al.
# Submitted via: dBpowerAMP V12.0
#
DISCID=df0c3910
DTITLE=Various Artist - Play Me the Blues Vol. 9
DYEAR=1991
DGENRE=Blues
TTITLE0=Johnny Winter - Pick Up on Mojo
TTITLE1=Memphis Slim - Feelin´ Low
TTITLE2=Elmore James - I Done Somebody
TTITLE3=Jimi Hendrix - Bleeding Heart
TTITLE4=Little Walter - Can´t Hold Out Much Longer
TTITLE5=Sonny Boy Williamson - The Key to Your Heart
TTITLE6=Johnny Guitar Watson - The Eagle Is Back
TTITLE7=Howlin´ Wolf - Shake for Me
TTITLE8=John Mayall - Mhy Worry
TTITLE9=Mike Bloomfiled - Women Loving Eachother
TTITLE10=John Lee Hooker - I Love You Baby
TTITLE11=Muddy Waters - Baby Please Don´t Go
TTITLE12=Howlin´ Wolf - Little Baby
TTITLE13=Sonny Boy Williamson - Got to Move
TTITLE14=Little Walter - Juke
TTITLE15=Big Joe Williams - Don´t Want No Big Fat
EXTD=
EXTT0=
EXTT1=
EXTT2=
EXTT3=
EXTT4=
EXTT5=
EXTT6=
EXTT7=
EXTT8=
EXTT9=
EXTT10=
EXTT11=
EXTT12=
EXTT13=
EXTT14=
EXTT15=
PLAYORDER=
